<svg width="28" height="28" viewBox="0 0 28 28" fill="none" xmlns="http://www.w3.org/2000/svg"><path fill-rule="evenodd" clip-rule="evenodd" d="M14.366 3.39c.24.431.205.964-.091 1.36-2.248 3.002-1.463 6.444.776 8.666 2.242 2.225 5.737 3.02 8.796.79a1.25 1.25 0 0 1 1.98 1.126c-.643 6.886-7.49 11.713-14.213 10.234-6.418-1.41-9.216-6.892-8.828-12.037C3.172 8.398 6.745 3.34 13.16 2.755a1.25 1.25 0 0 1 1.205.635M5.279 13.717c-.312 4.14 1.889 8.312 6.872 9.407 4.435.976 8.93-1.557 10.573-5.54-3.507 1.18-7.084-.062-9.434-2.393-2.354-2.336-3.606-5.898-2.395-9.381-3.422 1.3-5.36 4.505-5.616 7.907" fill="#fff"/></svg>