<svg width="50" height="50" viewBox="0 0 50 50" fill="none" xmlns="http://www.w3.org/2000/svg"><path fill-rule="evenodd" clip-rule="evenodd" d="M24.431 5.268a1.5 1.5 0 0 1-.108 1.631c-4.44 5.93-2.85 12.731 1.51 17.058 4.363 4.33 11.256 5.934 17.283 1.537a1.5 1.5 0 0 1 2.377 1.352c-1.142 12.214-13.31 20.809-25.262 18.179C8.846 42.523 3.873 32.827 4.563 23.652c.69-9.157 7.044-18.107 18.423-19.146a1.5 1.5 0 0 1 1.445.762M7.555 23.878c-.6 7.969 3.656 16.093 13.32 18.217 9.19 2.022 18.515-3.737 21.04-12.422-6.649 3.071-13.678.896-18.195-3.586-4.518-4.484-6.706-11.463-3.583-18.046-7.702 2.045-12.05 8.756-12.582 15.837" fill="#fff"/></svg>