<svg width="50" height="50" viewBox="0 0 50 50" fill="none" xmlns="http://www.w3.org/2000/svg"><path fill-rule="evenodd" clip-rule="evenodd" d="M21.333 9a1.5 1.5 0 0 1 1.5-1.5h6a1.5 1.5 0 0 1 0 3h-6a1.5 1.5 0 0 1-1.5-1.5m-2.25 32a1.5 1.5 0 0 1 1.5-1.5h10.5a1.5 1.5 0 0 1 0 3h-10.5a1.5 1.5 0 0 1-1.5-1.5" fill="#fff"/><path fill-rule="evenodd" clip-rule="evenodd" d="M31.333 5.5h-11a5 5 0 0 0-5 5v29a5 5 0 0 0 5 5h11a5 5 0 0 0 5-5v-29a5 5 0 0 0-5-5m-11-3a8 8 0 0 0-8 8v29a8 8 0 0 0 8 8h11a8 8 0 0 0 8-8v-29a8 8 0 0 0-8-8z" fill="#fff"/></svg>