<svg width="50" height="50" viewBox="0 0 50 50" fill="none" xmlns="http://www.w3.org/2000/svg"><path d="M36 25c0 5.8-4.701 10.5-10.5 10.5S15 30.8 15 25s4.701-10.5 10.5-10.5S36 19.201 36 25m-18.06 0a7.56 7.56 0 1 0 15.12 0 7.56 7.56 0 0 0-15.12 0" fill="#fff"/><path fill-rule="evenodd" clip-rule="evenodd" d="M39.914 24.914a1.5 1.5 0 0 1 1.5-1.5h4a1.5 1.5 0 0 1 0 3h-4a1.5 1.5 0 0 1-1.5-1.5m-4.247 10.252a1.5 1.5 0 0 1 2.122 0l2.828 2.828a1.5 1.5 0 1 1-2.121 2.121l-2.829-2.828a1.5 1.5 0 0 1 0-2.121M25.414 46.414a1.5 1.5 0 0 1-1.5-1.5v-4a1.5 1.5 0 1 1 3 0v4a1.5 1.5 0 0 1-1.5 1.5m-15.203-6.298a1.5 1.5 0 0 1 0-2.121l2.829-2.829a1.5 1.5 0 0 1 2.121 2.121l-2.828 2.829a1.5 1.5 0 0 1-2.122 0M3.914 24.914a1.5 1.5 0 0 1 1.5-1.5h4a1.5 1.5 0 0 1 0 3h-4a1.5 1.5 0 0 1-1.5-1.5m6.297-15.201a1.5 1.5 0 0 1 2.122 0l2.828 2.828a1.5 1.5 0 0 1-2.121 2.121l-2.829-2.828a1.5 1.5 0 0 1 0-2.121m15.203.701a1.5 1.5 0 0 1-1.5-1.5v-4a1.5 1.5 0 0 1 3 0v4a1.5 1.5 0 0 1-1.5 1.5m10.253 4.249a1.5 1.5 0 0 1 0-2.122l2.829-2.828a1.5 1.5 0 1 1 2.121 2.121l-2.828 2.829a1.5 1.5 0 0 1-2.122 0" fill="#fff"/></svg>